<svg class="marks" width="1500" height="840" viewBox="0 0 1500 840" version="1.1" xmlns="http://www.w3.org/2000/svg" xmlns:xlink="http://www.w3.org/1999/xlink"><g transform="translate(0,0)"><g class="mark-group role-frame root"><g transform="translate(0,0)"><path class="background" d="M0,0h1500v840h-1500Z" style="fill: none;"></path><g><g class="mark-group role-axis"><g transform="translate(0.5,840.5)"><path class="background" d="M0,0h0v0h0Z" style="pointer-events: none; fill: none;"></path><g><g class="mark-rule role-axis-tick" style="pointer-events: none;"><line transform="translate(187,0)" x2="0" y2="5" style="fill: none; stroke: #888; stroke-width: 1; opacity: 1;"></line><line transform="translate(562,0)" x2="0" y2="5" style="fill: none; stroke: #888; stroke-width: 1; opacity: 1;"></line><line transform="translate(937,0)" x2="0" y2="5" style="fill: none; stroke: #888; stroke-width: 1; opacity: 1;"></line><line transform="translate(1312,0)" x2="0" y2="5" style="fill: none; stroke: #888; stroke-width: 1; opacity: 1;"></line></g><g class="mark-text role-axis-label" style="pointer-events: none;"><text text-anchor="middle" transform="translate(187,15)" style="font-family: sans-serif; font-size: 10px; fill: #000; opacity: 1;">1</text><text text-anchor="middle" transform="translate(562,15)" style="font-family: sans-serif; font-size: 10px; fill: #000; opacity: 1;">2</text><text text-anchor="middle" transform="translate(937,15)" style="font-family: sans-serif; font-size: 10px; fill: #000; opacity: 1;">3</text><text text-anchor="middle" transform="translate(1312,15)" style="font-family: sans-serif; font-size: 10px; fill: #000; opacity: 1;">4</text></g><g class="mark-rule role-axis-domain" style="pointer-events: none;"><line transform="translate(0,0)" x2="1500" y2="0" style="fill: none; stroke: #888; stroke-width: 1; opacity: 1;"></line></g></g><path class="foreground" d="" style="pointer-events: none; display: none; fill: none;"></path></g></g><g class="mark-group role-axis"><g transform="translate(0.5,0.5)"><path class="background" d="M0,0h0v0h0Z" style="pointer-events: none; fill: none;"></path><g><g class="mark-rule role-axis-tick" style="pointer-events: none;"><line transform="translate(0,840)" x2="-5" y2="0" style="fill: none; stroke: #888; stroke-width: 1; opacity: 1;"></line><line transform="translate(0,735)" x2="-5" y2="0" style="fill: none; stroke: #888; stroke-width: 1; opacity: 1;"></line><line transform="translate(0,630)" x2="-5" y2="0" style="fill: none; stroke: #888; stroke-width: 1; opacity: 1;"></line><line transform="translate(0,525)" x2="-5" y2="0" style="fill: none; stroke: #888; stroke-width: 1; opacity: 1;"></line><line transform="translate(0,420)" x2="-5" y2="0" style="fill: none; stroke: #888; stroke-width: 1; opacity: 1;"></line><line transform="translate(0,315)" x2="-5" y2="0" style="fill: none; stroke: #888; stroke-width: 1; opacity: 1;"></line><line transform="translate(0,210)" x2="-5" y2="0" style="fill: none; stroke: #888; stroke-width: 1; opacity: 1;"></line><line transform="translate(0,105)" x2="-5" y2="0" style="fill: none; stroke: #888; stroke-width: 1; opacity: 1;"></line><line transform="translate(0,0)" x2="-5" y2="0" style="fill: none; stroke: #888; stroke-width: 1; opacity: 1;"></line></g><g class="mark-text role-axis-label" style="pointer-events: none;"><text text-anchor="end" transform="translate(-7,843)" style="font-family: sans-serif; font-size: 10px; fill: #000; opacity: 1;">-4.0</text><text text-anchor="end" transform="translate(-7,738)" style="font-family: sans-serif; font-size: 10px; fill: #000; opacity: 1;">-3.5</text><text text-anchor="end" transform="translate(-7,633)" style="font-family: sans-serif; font-size: 10px; fill: #000; opacity: 1;">-3.0</text><text text-anchor="end" transform="translate(-7,528)" style="font-family: sans-serif; font-size: 10px; fill: #000; opacity: 1;">-2.5</text><text text-anchor="end" transform="translate(-7,423)" style="font-family: sans-serif; font-size: 10px; fill: #000; opacity: 1;">-2.0</text><text text-anchor="end" transform="translate(-7,318)" style="font-family: sans-serif; font-size: 10px; fill: #000; opacity: 1;">-1.5</text><text text-anchor="end" transform="translate(-7,213)" style="font-family: sans-serif; font-size: 10px; fill: #000; opacity: 1;">-1.0</text><text text-anchor="end" transform="translate(-7,108)" style="font-family: sans-serif; font-size: 10px; fill: #000; opacity: 1;">-0.5</text><text text-anchor="end" transform="translate(-7,3)" style="font-family: sans-serif; font-size: 10px; fill: #000; opacity: 1;">0.0</text></g><g class="mark-rule role-axis-domain" style="pointer-events: none;"><line transform="translate(0,840)" x2="0" y2="-840" style="fill: none; stroke: #888; stroke-width: 1; opacity: 1;"></line></g></g><path class="foreground" d="" style="pointer-events: none; display: none; fill: none;"></path></g></g><g class="mark-path role-mark links" style="pointer-events: none;"><path transform="translate(0,0)" d="M362,429L191,276" style="fill: none; stroke: #ccc; stroke-width: 0.8;"></path><path transform="translate(0,0)" d="M191,276L386,90" style="fill: none; stroke: #ccc; stroke-width: 0.8;"></path><path transform="translate(0,0)" d="M191,276L646,190" style="fill: none; stroke: #ccc; stroke-width: 0.8;"></path><path transform="translate(0,0)" d="M646,190L386,90" style="fill: none; stroke: #ccc; stroke-width: 0.8;"></path></g><g class="mark-symbol role-mark nodes"><path transform="translate(362,429)" d="M50,0A50,50,0,1,1,-50,0A50,50,0,1,1,50,0" style="fill: #1b9e77; stroke: black;"></path><path transform="translate(191,276)" d="M50,0A50,50,0,1,1,-50,0A50,50,0,1,1,50,0" style="fill: #d95f02; stroke: black;"></path><path transform="translate(646,190)" d="M50,0A50,50,0,1,1,-50,0A50,50,0,1,1,50,0" style="fill: #7570b3; stroke: black;"></path><path transform="translate(386,90)" d="M50,0A50,50,0,1,1,-50,0A50,50,0,1,1,50,0" style="fill: #e7298a; stroke: black;"></path></g><g class="mark-text role-mark nodes_labels"><text text-anchor="middle" transform="translate(362,429)" style="font-family: sans-serif; font-size: 18px; fill: black; stroke-width: 0.9;">tamoxifen</text><text text-anchor="middle" transform="translate(191,276)" style="font-family: sans-serif; font-size: 18px; fill: black; stroke-width: 0.9;">estrogen</text><text text-anchor="middle" transform="translate(646,190)" style="font-family: sans-serif; font-size: 18px; fill: black; stroke-width: 0.9;">breast-cancer-tissue</text><text text-anchor="middle" transform="translate(386,90)" style="font-family: sans-serif; font-size: 18px; fill: black; stroke-width: 0.9;">breast-tissue</text></g><g class="mark-text role-mark links_labels"><text text-anchor="middle" transform="translate(276.5,352.5) rotate(-318.1798301198643)" style="font-family: sans-serif; font-size: 18px; fill: black;">inhibits</text><text text-anchor="middle" transform="translate(288.5,183) rotate(-43.64680804622031)" style="font-family: sans-serif; font-size: 18px; fill: black;">promotes</text><text text-anchor="middle" transform="translate(418.5,233) rotate(-10.703265401821644)" style="font-family: sans-serif; font-size: 18px; fill: black;">promotes</text><text text-anchor="middle" transform="translate(516,140) rotate(-338.96248897457815)" style="font-family: sans-serif; font-size: 18px; fill: black;">derived-from</text></g><g class="mark-symbol role-mark links_directions"><path transform="translate(236.59411685967177,316.79473613760103) rotate(-48.17983011986425)" d="M-1.5971914124998499,11.180339887498949L1.5971914124998499,11.180339887498949L1.5971914124998499,-1.3975424859373686L4.47213595499958,-1.3975424859373686L0,-11.180339887498949L-4.47213595499958,-1.3975424859373686L-1.5971914124998499,-1.3975424859373686Z" style="fill: #ccc;"></path><path transform="translate(341.72940241881076,132.22733923128823) rotate(46.35319195377969)" d="M-1.5971914124998499,11.180339887498949L1.5971914124998499,11.180339887498949L1.5971914124998499,-1.3975424859373686L4.47213595499958,-1.3975424859373686L0,-11.180339887498949L-4.47213595499958,-1.3975424859373686L-1.5971914124998499,-1.3975424859373686Z" style="fill: #ccc;"></path><path transform="translate(585.8840626079223,201.36257278179932) rotate(79.29673459817836)" d="M-1.5971914124998499,11.180339887498949L1.5971914124998499,11.180339887498949L1.5971914124998499,-1.3975424859373686L4.47213595499958,-1.3975424859373686L0,-11.180339887498949L-4.47213595499958,-1.3975424859373686L-1.5971914124998499,-1.3975424859373686Z" style="fill: #ccc;"></path><path transform="translate(443.1024014200069,111.96246208461804) rotate(-68.96248897457818)" d="M-1.5971914124998499,11.180339887498949L1.5971914124998499,11.180339887498949L1.5971914124998499,-1.3975424859373686L4.47213595499958,-1.3975424859373686L0,-11.180339887498949L-4.47213595499958,-1.3975424859373686L-1.5971914124998499,-1.3975424859373686Z" style="fill: #ccc;"></path></g></g><path class="foreground" d="" style="display: none; fill: none;"></path></g></g></g></svg>