<svg class="marks" width="1500" height="840" viewBox="0 0 1500 840" version="1.1" xmlns="http://www.w3.org/2000/svg" xmlns:xlink="http://www.w3.org/1999/xlink"><g transform="translate(0,0)"><g class="mark-group role-frame root"><g transform="translate(0,0)"><path class="background" d="M0,0h1500v840h-1500Z" style="fill: none;"></path><g><g class="mark-group role-axis"><g transform="translate(0.5,840.5)"><path class="background" d="M0,0h0v0h0Z" style="pointer-events: none; fill: none;"></path><g><g class="mark-rule role-axis-tick" style="pointer-events: none;"><line transform="translate(150,0)" x2="0" y2="5" style="fill: none; stroke: #888; stroke-width: 1; opacity: 1;"></line><line transform="translate(450,0)" x2="0" y2="5" style="fill: none; stroke: #888; stroke-width: 1; opacity: 1;"></line><line transform="translate(750,0)" x2="0" y2="5" style="fill: none; stroke: #888; stroke-width: 1; opacity: 1;"></line><line transform="translate(1050,0)" x2="0" y2="5" style="fill: none; stroke: #888; stroke-width: 1; opacity: 1;"></line><line transform="translate(1350,0)" x2="0" y2="5" style="fill: none; stroke: #888; stroke-width: 1; opacity: 1;"></line></g><g class="mark-text role-axis-label" style="pointer-events: none;"><text text-anchor="middle" transform="translate(149.5,15)" style="font-family: sans-serif; font-size: 10px; fill: #000; opacity: 1;">1</text><text text-anchor="middle" transform="translate(449.5,15)" style="font-family: sans-serif; font-size: 10px; fill: #000; opacity: 1;">4</text><text text-anchor="middle" transform="translate(749.5,15)" style="font-family: sans-serif; font-size: 10px; fill: #000; opacity: 1;">3</text><text text-anchor="middle" transform="translate(1049.5,15)" style="font-family: sans-serif; font-size: 10px; fill: #000; opacity: 1;">5</text><text text-anchor="middle" transform="translate(1349.5,15)" style="font-family: sans-serif; font-size: 10px; fill: #000; opacity: 1;">2</text></g><g class="mark-rule role-axis-domain" style="pointer-events: none;"><line transform="translate(0,0)" x2="1500" y2="0" style="fill: none; stroke: #888; stroke-width: 1; opacity: 1;"></line></g></g><path class="foreground" d="" style="pointer-events: none; display: none; fill: none;"></path></g></g><g class="mark-group role-axis"><g transform="translate(0.5,0.5)"><path class="background" d="M0,0h0v0h0Z" style="pointer-events: none; fill: none;"></path><g><g class="mark-rule role-axis-tick" style="pointer-events: none;"><line transform="translate(0,840)" x2="-5" y2="0" style="fill: none; stroke: #888; stroke-width: 1; opacity: 1;"></line><line transform="translate(0,735)" x2="-5" y2="0" style="fill: none; stroke: #888; stroke-width: 1; opacity: 1;"></line><line transform="translate(0,630)" x2="-5" y2="0" style="fill: none; stroke: #888; stroke-width: 1; opacity: 1;"></line><line transform="translate(0,525)" x2="-5" y2="0" style="fill: none; stroke: #888; stroke-width: 1; opacity: 1;"></line><line transform="translate(0,420)" x2="-5" y2="0" style="fill: none; stroke: #888; stroke-width: 1; opacity: 1;"></line><line transform="translate(0,315)" x2="-5" y2="0" style="fill: none; stroke: #888; stroke-width: 1; opacity: 1;"></line><line transform="translate(0,210)" x2="-5" y2="0" style="fill: none; stroke: #888; stroke-width: 1; opacity: 1;"></line><line transform="translate(0,105)" x2="-5" y2="0" style="fill: none; stroke: #888; stroke-width: 1; opacity: 1;"></line><line transform="translate(0,0)" x2="-5" y2="0" style="fill: none; stroke: #888; stroke-width: 1; opacity: 1;"></line></g><g class="mark-text role-axis-label" style="pointer-events: none;"><text text-anchor="end" transform="translate(-7,843)" style="font-family: sans-serif; font-size: 10px; fill: #000; opacity: 1;">-4.0</text><text text-anchor="end" transform="translate(-7,738)" style="font-family: sans-serif; font-size: 10px; fill: #000; opacity: 1;">-3.5</text><text text-anchor="end" transform="translate(-7,633)" style="font-family: sans-serif; font-size: 10px; fill: #000; opacity: 1;">-3.0</text><text text-anchor="end" transform="translate(-7,528)" style="font-family: sans-serif; font-size: 10px; fill: #000; opacity: 1;">-2.5</text><text text-anchor="end" transform="translate(-7,423)" style="font-family: sans-serif; font-size: 10px; fill: #000; opacity: 1;">-2.0</text><text text-anchor="end" transform="translate(-7,318)" style="font-family: sans-serif; font-size: 10px; fill: #000; opacity: 1;">-1.5</text><text text-anchor="end" transform="translate(-7,213)" style="font-family: sans-serif; font-size: 10px; fill: #000; opacity: 1;">-1.0</text><text text-anchor="end" transform="translate(-7,108)" style="font-family: sans-serif; font-size: 10px; fill: #000; opacity: 1;">-0.5</text><text text-anchor="end" transform="translate(-7,3)" style="font-family: sans-serif; font-size: 10px; fill: #000; opacity: 1;">0.0</text></g><g class="mark-rule role-axis-domain" style="pointer-events: none;"><line transform="translate(0,840)" x2="0" y2="-840" style="fill: none; stroke: #888; stroke-width: 1; opacity: 1;"></line></g></g><path class="foreground" d="" style="pointer-events: none; display: none; fill: none;"></path></g></g><g class="mark-path role-mark links" style="pointer-events: none;"><path transform="translate(0,0)" d="M800,672L845,492" style="fill: none; stroke: #ccc; stroke-width: 0.8;"></path><path transform="translate(0,0)" d="M420,364L431,140" style="fill: none; stroke: #ccc; stroke-width: 0.8;"></path><path transform="translate(0,0)" d="M646,579L635,363" style="fill: none; stroke: #ccc; stroke-width: 0.8;"></path><path transform="translate(0,0)" d="M1143,163L656,74" style="fill: none; stroke: #ccc; stroke-width: 0.8;"></path><path transform="translate(0,0)" d="M431,140L656,74" style="fill: none; stroke: #ccc; stroke-width: 0.8;"></path><path transform="translate(0,0)" d="M845,492L951,318" style="fill: none; stroke: #ccc; stroke-width: 0.8;"></path><path transform="translate(0,0)" d="M635,363L431,140" style="fill: none; stroke: #ccc; stroke-width: 0.8;"></path><path transform="translate(0,0)" d="M1377,595L1292,329" style="fill: none; stroke: #ccc; stroke-width: 0.8;"></path><path transform="translate(0,0)" d="M1098,614L1292,329" style="fill: none; stroke: #ccc; stroke-width: 0.8;"></path><path transform="translate(0,0)" d="M951,318L1143,163" style="fill: none; stroke: #ccc; stroke-width: 0.8;"></path><path transform="translate(0,0)" d="M1292,329L1143,163" style="fill: none; stroke: #ccc; stroke-width: 0.8;"></path><path transform="translate(0,0)" d="M405,578L635,363" style="fill: none; stroke: #ccc; stroke-width: 0.8;"></path><path transform="translate(0,0)" d="M162,351L431,140" style="fill: none; stroke: #ccc; stroke-width: 0.8;"></path></g><g class="mark-symbol role-mark nodes"><path transform="translate(800,672)" d="M50,0A50,50,0,1,1,-50,0A50,50,0,1,1,50,0" style="fill: #1b9e77; stroke: black;"></path><path transform="translate(420,364)" d="M50,0A50,50,0,1,1,-50,0A50,50,0,1,1,50,0" style="fill: #d95f02; stroke: black;"></path><path transform="translate(646,579)" d="M50,0A50,50,0,1,1,-50,0A50,50,0,1,1,50,0" style="fill: #7570b3; stroke: black;"></path><path transform="translate(1143,163)" d="M50,0A50,50,0,1,1,-50,0A50,50,0,1,1,50,0" style="fill: #e7298a; stroke: black;"></path><path transform="translate(431,140)" d="M50,0A50,50,0,1,1,-50,0A50,50,0,1,1,50,0" style="fill: #d95f02; stroke: black;"></path><path transform="translate(845,492)" d="M50,0A50,50,0,1,1,-50,0A50,50,0,1,1,50,0" style="fill: #1b9e77; stroke: black;"></path><path transform="translate(656,74)" d="M50,0A50,50,0,1,1,-50,0A50,50,0,1,1,50,0" style="fill: #e7298a; stroke: black;"></path><path transform="translate(635,363)" d="M50,0A50,50,0,1,1,-50,0A50,50,0,1,1,50,0" style="fill: #7570b3; stroke: black;"></path><path transform="translate(1377,595)" d="M50,0A50,50,0,1,1,-50,0A50,50,0,1,1,50,0" style="fill: #66a61e; stroke: black;"></path><path transform="translate(1098,614)" d="M50,0A50,50,0,1,1,-50,0A50,50,0,1,1,50,0" style="fill: #66a61e; stroke: black;"></path><path transform="translate(951,318)" d="M50,0A50,50,0,1,1,-50,0A50,50,0,1,1,50,0" style="fill: #1b9e77; stroke: black;"></path><path transform="translate(1292,329)" d="M50,0A50,50,0,1,1,-50,0A50,50,0,1,1,50,0" style="fill: #66a61e; stroke: black;"></path><path transform="translate(405,578)" d="M50,0A50,50,0,1,1,-50,0A50,50,0,1,1,50,0" style="fill: #7570b3; stroke: black;"></path><path transform="translate(162,351)" d="M50,0A50,50,0,1,1,-50,0A50,50,0,1,1,50,0" style="fill: #d95f02; stroke: black;"></path></g><g class="mark-text role-mark nodes_labels"><text text-anchor="middle" transform="translate(800,672)" style="font-family: sans-serif; font-size: 18px; fill: black; stroke-width: 0.9;">lhrh-agonist</text><text text-anchor="middle" transform="translate(420,364)" style="font-family: sans-serif; font-size: 18px; fill: black; stroke-width: 0.9;">breast-tissue</text><text text-anchor="middle" transform="translate(646,579)" style="font-family: sans-serif; font-size: 18px; fill: black; stroke-width: 0.9;">breast-cancer-tissue</text><text text-anchor="middle" transform="translate(1143,163)" style="font-family: sans-serif; font-size: 18px; fill: black; stroke-width: 0.9;">chemical</text><text text-anchor="middle" transform="translate(431,140)" style="font-family: sans-serif; font-size: 18px; fill: black; stroke-width: 0.9;">tissue</text><text text-anchor="middle" transform="translate(845,492)" style="font-family: sans-serif; font-size: 18px; fill: black; stroke-width: 0.9;">hormone-inhibitor</text><text text-anchor="middle" transform="translate(656,74)" style="font-family: sans-serif; font-size: 18px; fill: black; stroke-width: 0.9;">thing</text><text text-anchor="middle" transform="translate(635,363)" style="font-family: sans-serif; font-size: 18px; fill: black; stroke-width: 0.9;">cancer-tissue</text><text text-anchor="middle" transform="translate(1377,595)" style="font-family: sans-serif; font-size: 18px; fill: black; stroke-width: 0.9;">estrogen</text><text text-anchor="middle" transform="translate(1098,614)" style="font-family: sans-serif; font-size: 18px; fill: black; stroke-width: 0.9;">testosterone</text><text text-anchor="middle" transform="translate(951,318)" style="font-family: sans-serif; font-size: 18px; fill: black; stroke-width: 0.9;">drug</text><text text-anchor="middle" transform="translate(1292,329)" style="font-family: sans-serif; font-size: 18px; fill: black; stroke-width: 0.9;">hormone</text><text text-anchor="middle" transform="translate(405,578)" style="font-family: sans-serif; font-size: 18px; fill: black; stroke-width: 0.9;">prostate-cancer-tissue</text><text text-anchor="middle" transform="translate(162,351)" style="font-family: sans-serif; font-size: 18px; fill: black; stroke-width: 0.9;">prostate-tissue</text></g><g class="mark-text role-mark links_labels"><text text-anchor="middle" transform="translate(822.5,582) rotate(-75.96375653207353)" style="font-family: sans-serif; font-size: 18px; fill: black;">is-a</text><text text-anchor="middle" transform="translate(425.5,252) rotate(-87.18862640547347)" style="font-family: sans-serif; font-size: 18px; fill: black;">is-a</text><text text-anchor="middle" transform="translate(640.5,471) rotate(-272.9153221166425)" style="font-family: sans-serif; font-size: 18px; fill: black;">is-a</text><text text-anchor="middle" transform="translate(899.5,118.5) rotate(-349.643395840242)" style="font-family: sans-serif; font-size: 18px; fill: black;">is-a</text><text text-anchor="middle" transform="translate(543.5,107) rotate(-16.34817154735125)" style="font-family: sans-serif; font-size: 18px; fill: black;">is-a</text><text text-anchor="middle" transform="translate(898,405) rotate(-58.650419134756994)" style="font-family: sans-serif; font-size: 18px; fill: black;">is-a</text><text text-anchor="middle" transform="translate(533,251.5) rotate(-312.45221967984196)" style="font-family: sans-serif; font-size: 18px; fill: black;">is-a</text><text text-anchor="middle" transform="translate(1334.5,462) rotate(-287.7212217848193)" style="font-family: sans-serif; font-size: 18px; fill: black;">is-a</text><text text-anchor="middle" transform="translate(1195,471.5) rotate(-55.75681260654461)" style="font-family: sans-serif; font-size: 18px; fill: black;">is-a</text><text text-anchor="middle" transform="translate(1047,240.5) rotate(-38.91364865441717)" style="font-family: sans-serif; font-size: 18px; fill: black;">is-a</text><text text-anchor="middle" transform="translate(1217.5,246) rotate(-311.91084362466347)" style="font-family: sans-serif; font-size: 18px; fill: black;">is-a</text><text text-anchor="middle" transform="translate(520,470.5) rotate(-43.069412558833015)" style="font-family: sans-serif; font-size: 18px; fill: black;">is-a</text><text text-anchor="middle" transform="translate(296.5,245.5) rotate(-38.11016254381181)" style="font-family: sans-serif; font-size: 18px; fill: black;">is-a</text></g><g class="mark-symbol role-mark links_directions"><path transform="translate(830.1615880254501,551.3536478981994) rotate(14.036243467926468)" d="M-1.5971914124998499,11.180339887498949L1.5971914124998499,11.180339887498949L1.5971914124998499,-1.3975424859373686L4.47213595499958,-1.3975424859373686L0,-11.180339887498949L-4.47213595499958,-1.3975424859373686L-1.5971914124998499,-1.3975424859373686Z" style="fill: #ccc;"></path><path transform="translate(427.99922433287253,201.10670449423262) rotate(2.811373594526529)" d="M-1.5971914124998499,11.180339887498949L1.5971914124998499,11.180339887498949L1.5971914124998499,-1.3975424859373686L4.47213595499958,-1.3975424859373686L0,-11.180339887498949L-4.47213595499958,-1.3975424859373686L-1.5971914124998499,-1.3975424859373686Z" style="fill: #ccc;"></path><path transform="translate(638.111633137572,424.1011597923236) rotate(-2.9153221166425283)" d="M-1.5971914124998499,11.180339887498949L1.5971914124998499,11.180339887498949L1.5971914124998499,-1.3975424859373686L4.47213595499958,-1.3975424859373686L0,-11.180339887498949L-4.47213595499958,-1.3975424859373686L-1.5971914124998499,-1.3975424859373686Z" style="fill: #ccc;"></path><path transform="translate(716.1835845247829,84.99864275709591) rotate(-79.64339584024202)" d="M-1.5971914124998499,11.180339887498949L1.5971914124998499,11.180339887498949L1.5971914124998499,-1.3975424859373686L4.47213595499958,-1.3975424859373686L0,-11.180339887498949L-4.47213595499958,-1.3975424859373686L-1.5971914124998499,-1.3975424859373686Z" style="fill: #ccc;"></path><path transform="translate(597.2932435571429,91.22064855657143) rotate(73.65182845264874)" d="M-1.5971914124998499,11.180339887498949L1.5971914124998499,11.180339887498949L1.5971914124998499,-1.3975424859373686L4.47213595499958,-1.3975424859373686L0,-11.180339887498949L-4.47213595499958,-1.3975424859373686L-1.5971914124998499,-1.3975424859373686Z" style="fill: #ccc;"></path><path transform="translate(919.1704189903511,370.24855750640484) rotate(31.349580865243006)" d="M-1.5971914124998499,11.180339887498949L1.5971914124998499,11.180339887498949L1.5971914124998499,-1.3975424859373686L4.47213595499958,-1.3975424859373686L0,-11.180339887498949L-4.47213595499958,-1.3975424859373686L-1.5971914124998499,-1.3975424859373686Z" style="fill: #ccc;"></path><path transform="translate(472.2952084550583,185.1413308111666) rotate(-42.45221967984193)" d="M-1.5971914124998499,11.180339887498949L1.5971914124998499,11.180339887498949L1.5971914124998499,-1.3975424859373686L4.47213595499958,-1.3975424859373686L0,-11.180339887498949L-4.47213595499958,-1.3975424859373686L-1.5971914124998499,-1.3975424859373686Z" style="fill: #ccc;"></path><path transform="translate(1310.622432596626,387.27725965532363) rotate(-17.72122178481932)" d="M-1.5971914124998499,11.180339887498949L1.5971914124998499,11.180339887498949L1.5971914124998499,-1.3975424859373686L4.47213595499958,-1.3975424859373686L0,-11.180339887498949L-4.47213595499958,-1.3975424859373686L-1.5971914124998499,-1.3975424859373686Z" style="fill: #ccc;"></path><path transform="translate(1257.5734164956339,379.575135560538) rotate(34.24318739345539)" d="M-1.5971914124998499,11.180339887498949L1.5971914124998499,11.180339887498949L1.5971914124998499,-1.3975424859373686L4.47213595499958,-1.3975424859373686L0,-11.180339887498949L-4.47213595499958,-1.3975424859373686L-1.5971914124998499,-1.3975424859373686Z" style="fill: #ccc;"></path><path transform="translate(1095.3959729493592,201.4303343377568) rotate(51.08635134558283)" d="M-1.5971914124998499,11.180339887498949L1.5971914124998499,11.180339887498949L1.5971914124998499,-1.3975424859373686L4.47213595499958,-1.3975424859373686L0,-11.180339887498949L-4.47213595499958,-1.3975424859373686L-1.5971914124998499,-1.3975424859373686Z" style="fill: #ccc;"></path><path transform="translate(1183.8668402379183,208.52949986237883) rotate(-41.91084362466347)" d="M-1.5971914124998499,11.180339887498949L1.5971914124998499,11.180339887498949L1.5971914124998499,-1.3975424859373686L4.47213595499958,-1.3975424859373686L0,-11.180339887498949L-4.47213595499958,-1.3975424859373686L-1.5971914124998499,-1.3975424859373686Z" style="fill: #ccc;"></path><path transform="translate(590.3061135551267,404.77906776368593) rotate(46.930587441166985)" d="M-1.5971914124998499,11.180339887498949L1.5971914124998499,11.180339887498949L1.5971914124998499,-1.3975424859373686L4.47213595499958,-1.3975424859373686L0,-11.180339887498949L-4.47213595499958,-1.3975424859373686L-1.5971914124998499,-1.3975424859373686Z" style="fill: #ccc;"></path><path transform="translate(382.8617444385486,177.75900343296004) rotate(51.88983745618819)" d="M-1.5971914124998499,11.180339887498949L1.5971914124998499,11.180339887498949L1.5971914124998499,-1.3975424859373686L4.47213595499958,-1.3975424859373686L0,-11.180339887498949L-4.47213595499958,-1.3975424859373686L-1.5971914124998499,-1.3975424859373686Z" style="fill: #ccc;"></path></g></g><path class="foreground" d="" style="display: none; fill: none;"></path></g></g></g></svg>