<?xml version="1.0" encoding="UTF-8" standalone="no"?>
<!DOCTYPE svg PUBLIC "-//W3C//DTD SVG 1.1//EN"
 "http://www.w3.org/Graphics/SVG/1.1/DTD/svg11.dtd">
<!-- Generated by graphviz version 2.40.1 (20161225.0304)
 -->
<!-- Title: %3 Pages: 1 -->
<svg width="380pt" height="531pt"
 viewBox="0.00 0.00 380.43 531.00" xmlns="http://www.w3.org/2000/svg" xmlns:xlink="http://www.w3.org/1999/xlink">
<g id="graph0" class="graph" transform="scale(1 1) rotate(0) translate(4 527)">
<title>%3</title>
<!-- context&#45;paths -->
<g id="node1" class="node">
<title>context&#45;paths</title>
<ellipse fill="none" stroke="#000000" cx="178.2428" cy="-359" rx="57.6901" ry="18"/>
<text text-anchor="middle" x="178.2428" y="-355.3" font-family="Times,serif" font-size="14.00" fill="#000000">context&#45;paths</text>
</g>
<!-- seeds -->
<g id="node2" class="node">
<title>seeds</title>
<ellipse fill="none" stroke="#000000" cx="138.2428" cy="-286" rx="29.795" ry="18"/>
<text text-anchor="middle" x="138.2428" y="-282.3" font-family="Times,serif" font-size="14.00" fill="#000000">seeds</text>
</g>
<!-- context&#45;paths&#45;&gt;seeds -->
<g id="edge1" class="edge">
<title>context&#45;paths&#45;&gt;seeds</title>
<path fill="none" stroke="#000000" d="M168.3551,-340.9551C163.6356,-332.3419 157.8965,-321.8681 152.6996,-312.3837"/>
<polygon fill="#000000" stroke="#000000" points="155.6161,-310.4226 147.7412,-303.3347 149.4772,-313.7863 155.6161,-310.4226"/>
</g>
<!-- sentences -->
<g id="node5" class="node">
<title>sentences</title>
<ellipse fill="none" stroke="#000000" cx="241.2428" cy="-232" rx="44.393" ry="18"/>
<text text-anchor="middle" x="241.2428" y="-228.3" font-family="Times,serif" font-size="14.00" fill="#000000">sentences</text>
</g>
<!-- context&#45;paths&#45;&gt;sentences -->
<g id="edge2" class="edge">
<title>context&#45;paths&#45;&gt;sentences</title>
<path fill="none" stroke="#000000" d="M187.1355,-341.0734C197.7354,-319.7053 215.5539,-283.7856 227.8296,-259.0393"/>
<polygon fill="#000000" stroke="#000000" points="231.0868,-260.3492 232.3953,-249.8354 224.8159,-257.2384 231.0868,-260.3492"/>
</g>
<!-- patterns -->
<g id="node3" class="node">
<title>patterns</title>
<ellipse fill="none" stroke="#0000ff" cx="173.2428" cy="-178" rx="38.1938" ry="18"/>
<text text-anchor="middle" x="173.2428" y="-174.3" font-family="Times,serif" font-size="14.00" fill="#000000">patterns</text>
</g>
<!-- seeds&#45;&gt;patterns -->
<g id="edge3" class="edge">
<title>seeds&#45;&gt;patterns</title>
<path fill="none" stroke="#000000" d="M132.8794,-268.0378C129.3789,-252.9649 126.7111,-231.2023 134.2428,-214 136.5064,-208.83 139.9194,-204.0731 143.8021,-199.8276"/>
<polygon fill="#000000" stroke="#000000" points="146.3702,-202.2138 151.1517,-192.7593 141.5179,-197.1684 146.3702,-202.2138"/>
<text text-anchor="middle" x="161.2428" y="-228.3" font-family="Times,serif" font-size="14.00" fill="#000000">clustering</text>
</g>
<!-- filtering -->
<g id="node4" class="node">
<title>filtering</title>
<ellipse fill="none" stroke="#000000" cx="195.2428" cy="-91" rx="38.9931" ry="18"/>
<text text-anchor="middle" x="195.2428" y="-87.3" font-family="Times,serif" font-size="14.00" fill="#000000">filtering</text>
</g>
<!-- patterns&#45;&gt;filtering -->
<g id="edge4" class="edge">
<title>patterns&#45;&gt;filtering</title>
<path fill="none" stroke="#000000" d="M177.8012,-159.9735C180.81,-148.0751 184.8116,-132.2508 188.2229,-118.7606"/>
<polygon fill="#000000" stroke="#000000" points="191.6318,-119.5563 190.6902,-109.0034 184.8454,-117.8401 191.6318,-119.5563"/>
</g>
<!-- matches -->
<g id="node6" class="node">
<title>matches</title>
<ellipse fill="none" stroke="#0000ff" cx="117.2428" cy="-18" rx="40.0939" ry="18"/>
<text text-anchor="middle" x="117.2428" y="-14.3" font-family="Times,serif" font-size="14.00" fill="#000000">matches</text>
</g>
<!-- filtering&#45;&gt;matches -->
<g id="edge5" class="edge">
<title>filtering&#45;&gt;matches</title>
<path fill="none" stroke="#000000" d="M177.9321,-74.7989C167.4024,-64.9442 153.7798,-52.1949 142.1097,-41.2729"/>
<polygon fill="#000000" stroke="#000000" points="144.4677,-38.686 134.7748,-34.4082 139.6845,-43.7969 144.4677,-38.686"/>
</g>
<!-- sentences&#45;&gt;filtering -->
<g id="edge6" class="edge">
<title>sentences&#45;&gt;filtering</title>
<path fill="none" stroke="#000000" d="M236.2956,-213.8523C232.2278,-199.2343 226.1856,-178.1947 220.2428,-160 215.7167,-146.1427 210.2426,-130.8894 205.572,-118.2558"/>
<polygon fill="#000000" stroke="#000000" points="208.8054,-116.9093 202.032,-108.7624 202.2465,-119.355 208.8054,-116.9093"/>
</g>
<!-- matches&#45;&gt;seeds -->
<g id="edge7" class="edge">
<title>matches&#45;&gt;seeds</title>
<path fill="none" stroke="#ff0000" d="M114.421,-36.0703C111.2068,-57.6446 106.1533,-94.8492 104.2428,-127 101.4597,-173.8358 116.6229,-226.8792 127.6019,-258.3263"/>
<polygon fill="#ff0000" stroke="#ff0000" points="124.4494,-259.902 131.1328,-268.1228 131.0347,-257.5284 124.4494,-259.902"/>
<text text-anchor="middle" x="141.7428" y="-130.8" font-family="Times,serif" font-size="14.00" fill="#000000">bootstrapping</text>
</g>
<!-- text&#45;sources -->
<g id="node7" class="node">
<title>text&#45;sources</title>
<ellipse fill="none" stroke="#00ff00" cx="178.2428" cy="-505" rx="53.0913" ry="18"/>
<text text-anchor="middle" x="178.2428" y="-501.3" font-family="Times,serif" font-size="14.00" fill="#000000">text&#45;sources</text>
</g>
<!-- concept&#45;annotations -->
<g id="node8" class="node">
<title>concept&#45;annotations</title>
<ellipse fill="none" stroke="#000000" cx="81.2428" cy="-432" rx="81.4863" ry="18"/>
<text text-anchor="middle" x="81.2428" y="-428.3" font-family="Times,serif" font-size="14.00" fill="#000000">concept&#45;annotations</text>
</g>
<!-- text&#45;sources&#45;&gt;concept&#45;annotations -->
<g id="edge9" class="edge">
<title>text&#45;sources&#45;&gt;concept&#45;annotations</title>
<path fill="none" stroke="#000000" d="M156.232,-488.4352C143.3356,-478.7296 126.8347,-466.3114 112.5965,-455.5961"/>
<polygon fill="#000000" stroke="#000000" points="114.6139,-452.7339 104.5191,-449.5172 110.4046,-458.327 114.6139,-452.7339"/>
</g>
<!-- dependency&#45;annotations -->
<g id="node9" class="node">
<title>dependency&#45;annotations</title>
<ellipse fill="none" stroke="#000000" cx="276.2428" cy="-432" rx="96.3833" ry="18"/>
<text text-anchor="middle" x="276.2428" y="-428.3" font-family="Times,serif" font-size="14.00" fill="#000000">dependency&#45;annotations</text>
</g>
<!-- text&#45;sources&#45;&gt;dependency&#45;annotations -->
<g id="edge8" class="edge">
<title>text&#45;sources&#45;&gt;dependency&#45;annotations</title>
<path fill="none" stroke="#000000" d="M200.4805,-488.4352C213.5099,-478.7296 230.1809,-466.3114 244.5659,-455.5961"/>
<polygon fill="#000000" stroke="#000000" points="246.7977,-458.2979 252.7265,-449.5172 242.616,-452.6842 246.7977,-458.2979"/>
</g>
<!-- concept&#45;annotations&#45;&gt;context&#45;paths -->
<g id="edge10" class="edge">
<title>concept&#45;annotations&#45;&gt;context&#45;paths</title>
<path fill="none" stroke="#000000" d="M104.2304,-414.7C117.3435,-404.8314 133.935,-392.345 148.0841,-381.6968"/>
<polygon fill="#000000" stroke="#000000" points="150.2023,-384.4831 156.0878,-375.6733 145.9931,-378.89 150.2023,-384.4831"/>
</g>
<!-- dependency&#45;annotations&#45;&gt;context&#45;paths -->
<g id="edge11" class="edge">
<title>dependency&#45;annotations&#45;&gt;context&#45;paths</title>
<path fill="none" stroke="#000000" d="M252.5197,-414.3287C239.4785,-404.6143 223.1477,-392.4496 209.1223,-382.0021"/>
<polygon fill="#000000" stroke="#000000" points="210.848,-378.9232 200.7375,-375.7563 206.6663,-384.5369 210.848,-378.9232"/>
</g>
</g>
</svg>
