<?xml version="1.0" encoding="UTF-8" standalone="no"?>
<!DOCTYPE svg PUBLIC "-//W3C//DTD SVG 1.1//EN"
 "http://www.w3.org/Graphics/SVG/1.1/DTD/svg11.dtd">
<!-- Generated by graphviz version 2.40.1 (20161225.0304)
 -->
<!-- Title: %3 Pages: 1 -->
<svg width="515pt" height="827pt"
 viewBox="0.00 0.00 515.00 827.00" xmlns="http://www.w3.org/2000/svg" xmlns:xlink="http://www.w3.org/1999/xlink">
<g id="graph0" class="graph" transform="scale(1 1) rotate(0) translate(4 823)">
<title>%3</title>
<!-- mice -->
<g id="node1" class="node">
<title>mice</title>
<ellipse fill="none" stroke="#000000" cx="446" cy="-192" rx="28.6953" ry="18"/>
<text text-anchor="middle" x="446" y="-188.3" font-family="Times,serif" font-size="14.00" fill="#000000">mice</text>
</g>
<!-- mammals -->
<g id="node8" class="node">
<title>mammals</title>
<ellipse fill="none" stroke="#000000" cx="389" cy="-105" rx="46.2923" ry="18"/>
<text text-anchor="middle" x="389" y="-101.3" font-family="Times,serif" font-size="14.00" fill="#000000">mammals</text>
</g>
<!-- mice&#45;&gt;mammals -->
<g id="edge2" class="edge">
<title>mice&#45;&gt;mammals</title>
<path fill="none" stroke="#000000" d="M435.0098,-175.2255C426.812,-162.713 415.4584,-145.3838 406.0809,-131.0709"/>
<polygon fill="#000000" stroke="#000000" points="408.9513,-129.0654 400.5434,-122.6188 403.0961,-132.9016 408.9513,-129.0654"/>
<text text-anchor="middle" x="432" y="-144.8" font-family="Times,serif" font-size="14.00" fill="#000000">conj</text>
</g>
<!-- and -->
<g id="node11" class="node">
<title>and</title>
<ellipse fill="none" stroke="#000000" cx="480" cy="-105" rx="27" ry="18"/>
<text text-anchor="middle" x="480" y="-101.3" font-family="Times,serif" font-size="14.00" fill="#000000">and</text>
</g>
<!-- mice&#45;&gt;and -->
<g id="edge1" class="edge">
<title>mice&#45;&gt;and</title>
<path fill="none" stroke="#000000" d="M452.8804,-174.3943C457.6271,-162.2482 464.0288,-145.8674 469.4205,-132.0711"/>
<polygon fill="#000000" stroke="#000000" points="472.7497,-133.1676 473.1298,-122.5796 466.2299,-130.6196 472.7497,-133.1676"/>
<text text-anchor="middle" x="471.5" y="-144.8" font-family="Times,serif" font-size="14.00" fill="#000000">cc</text>
</g>
<!-- pressure -->
<g id="node2" class="node">
<title>pressure</title>
<ellipse fill="none" stroke="#000000" cx="324" cy="-366" rx="40.0939" ry="18"/>
<text text-anchor="middle" x="324" y="-362.3" font-family="Times,serif" font-size="14.00" fill="#000000">pressure</text>
</g>
<!-- &#45;RRB&#45; -->
<g id="node7" class="node">
<title>&#45;RRB&#45;</title>
<ellipse fill="none" stroke="#000000" cx="179" cy="-279" rx="34.394" ry="18"/>
<text text-anchor="middle" x="179" y="-275.3" font-family="Times,serif" font-size="14.00" fill="#000000">&#45;RRB&#45;</text>
</g>
<!-- pressure&#45;&gt;&#45;RRB&#45; -->
<g id="edge5" class="edge">
<title>pressure&#45;&gt;&#45;RRB&#45;</title>
<path fill="none" stroke="#000000" d="M295.7991,-353.0801C282.2988,-346.5989 266.052,-338.3608 252,-330 236.6326,-320.8565 220.2497,-309.5645 206.906,-299.9318"/>
<polygon fill="#000000" stroke="#000000" points="208.7578,-296.9503 198.6174,-293.8807 204.6303,-302.604 208.7578,-296.9503"/>
<text text-anchor="middle" x="267.5" y="-318.8" font-family="Times,serif" font-size="14.00" fill="#000000">punct</text>
</g>
<!-- IOP -->
<g id="node12" class="node">
<title>IOP</title>
<ellipse fill="none" stroke="#000000" cx="258" cy="-279" rx="27" ry="18"/>
<text text-anchor="middle" x="258" y="-275.3" font-family="Times,serif" font-size="14.00" fill="#000000">IOP</text>
</g>
<!-- pressure&#45;&gt;IOP -->
<g id="edge4" class="edge">
<title>pressure&#45;&gt;IOP</title>
<path fill="none" stroke="#000000" d="M310.9605,-348.8116C301.0997,-335.8133 287.4301,-317.7943 276.4487,-303.3187"/>
<polygon fill="#000000" stroke="#000000" points="279.175,-301.1215 270.3427,-295.2699 273.5982,-305.3522 279.175,-301.1215"/>
<text text-anchor="middle" x="310" y="-318.8" font-family="Times,serif" font-size="14.00" fill="#000000">appos</text>
</g>
<!-- intraocular -->
<g id="node16" class="node">
<title>intraocular</title>
<ellipse fill="none" stroke="#000000" cx="352" cy="-279" rx="48.9926" ry="18"/>
<text text-anchor="middle" x="352" y="-275.3" font-family="Times,serif" font-size="14.00" fill="#000000">intraocular</text>
</g>
<!-- pressure&#45;&gt;intraocular -->
<g id="edge3" class="edge">
<title>pressure&#45;&gt;intraocular</title>
<path fill="none" stroke="#000000" d="M329.8016,-347.9735C333.631,-336.0751 338.7239,-320.2508 343.0655,-306.7606"/>
<polygon fill="#000000" stroke="#000000" points="346.4738,-307.5948 346.2058,-297.0034 339.8104,-305.4502 346.4738,-307.5948"/>
<text text-anchor="middle" x="354.5" y="-318.8" font-family="Times,serif" font-size="14.00" fill="#000000">amod</text>
</g>
<!-- in -->
<g id="node19" class="node">
<title>in</title>
<ellipse fill="none" stroke="#000000" cx="446" cy="-279" rx="27" ry="18"/>
<text text-anchor="middle" x="446" y="-275.3" font-family="Times,serif" font-size="14.00" fill="#000000">in</text>
</g>
<!-- pressure&#45;&gt;in -->
<g id="edge6" class="edge">
<title>pressure&#45;&gt;in</title>
<path fill="none" stroke="#000000" d="M345.5303,-350.6464C366.0628,-336.0044 397.0507,-313.9065 419.1786,-298.1267"/>
<polygon fill="#000000" stroke="#000000" points="421.3673,-300.8648 427.477,-292.209 417.303,-295.1655 421.3673,-300.8648"/>
<text text-anchor="middle" x="404.5" y="-318.8" font-family="Times,serif" font-size="14.00" fill="#000000">prep</text>
</g>
<!-- factors -->
<g id="node3" class="node">
<title>factors</title>
<ellipse fill="none" stroke="#000000" cx="254" cy="-540" rx="34.394" ry="18"/>
<text text-anchor="middle" x="254" y="-536.3" font-family="Times,serif" font-size="14.00" fill="#000000">factors</text>
</g>
<!-- genetic -->
<g id="node6" class="node">
<title>genetic</title>
<ellipse fill="none" stroke="#000000" cx="227" cy="-453" rx="36.2938" ry="18"/>
<text text-anchor="middle" x="227" y="-449.3" font-family="Times,serif" font-size="14.00" fill="#000000">genetic</text>
</g>
<!-- factors&#45;&gt;genetic -->
<g id="edge7" class="edge">
<title>factors&#45;&gt;genetic</title>
<path fill="none" stroke="#000000" d="M248.4056,-521.9735C244.713,-510.0751 239.802,-494.2508 235.6154,-480.7606"/>
<polygon fill="#000000" stroke="#000000" points="238.894,-479.5166 232.5873,-471.0034 232.2086,-481.5914 238.894,-479.5166"/>
<text text-anchor="middle" x="258.5" y="-492.8" font-family="Times,serif" font-size="14.00" fill="#000000">amod</text>
</g>
<!-- affecting -->
<g id="node13" class="node">
<title>affecting</title>
<ellipse fill="none" stroke="#000000" cx="324" cy="-453" rx="42.4939" ry="18"/>
<text text-anchor="middle" x="324" y="-449.3" font-family="Times,serif" font-size="14.00" fill="#000000">affecting</text>
</g>
<!-- factors&#45;&gt;affecting -->
<g id="edge8" class="edge">
<title>factors&#45;&gt;affecting</title>
<path fill="none" stroke="#000000" d="M267.4967,-523.2255C277.7256,-510.5124 291.9553,-492.8269 303.5754,-478.3848"/>
<polygon fill="#000000" stroke="#000000" points="306.5237,-480.3037 310.0656,-470.3185 301.0699,-475.9156 306.5237,-480.3037"/>
<text text-anchor="middle" x="301" y="-492.8" font-family="Times,serif" font-size="14.00" fill="#000000">acl</text>
</g>
<!-- is -->
<g id="node4" class="node">
<title>is</title>
<ellipse fill="none" stroke="#000000" cx="27" cy="-627" rx="27" ry="18"/>
<text text-anchor="middle" x="27" y="-623.3" font-family="Times,serif" font-size="14.00" fill="#000000">is</text>
</g>
<!-- other -->
<g id="node5" class="node">
<title>other</title>
<ellipse fill="none" stroke="#000000" cx="389" cy="-18" rx="28.6953" ry="18"/>
<text text-anchor="middle" x="389" y="-14.3" font-family="Times,serif" font-size="14.00" fill="#000000">other</text>
</g>
<!-- mammals&#45;&gt;other -->
<g id="edge9" class="edge">
<title>mammals&#45;&gt;other</title>
<path fill="none" stroke="#000000" d="M389,-86.9735C389,-75.1918 389,-59.5607 389,-46.1581"/>
<polygon fill="#000000" stroke="#000000" points="392.5001,-46.0033 389,-36.0034 385.5001,-46.0034 392.5001,-46.0033"/>
<text text-anchor="middle" x="404.5" y="-57.8" font-family="Times,serif" font-size="14.00" fill="#000000">amod</text>
</g>
<!-- Little -->
<g id="node9" class="node">
<title>Little</title>
<ellipse fill="none" stroke="#000000" cx="102" cy="-627" rx="29.795" ry="18"/>
<text text-anchor="middle" x="102" y="-623.3" font-family="Times,serif" font-size="14.00" fill="#000000">Little</text>
</g>
<!-- . -->
<g id="node10" class="node">
<title>.</title>
<ellipse fill="none" stroke="#000000" cx="178" cy="-627" rx="27" ry="18"/>
<text text-anchor="middle" x="178" y="-623.3" font-family="Times,serif" font-size="14.00" fill="#000000">.</text>
</g>
<!-- &#45;LRB&#45; -->
<g id="node15" class="node">
<title>&#45;LRB&#45;</title>
<ellipse fill="none" stroke="#000000" cx="258" cy="-192" rx="33.5952" ry="18"/>
<text text-anchor="middle" x="258" y="-188.3" font-family="Times,serif" font-size="14.00" fill="#000000">&#45;LRB&#45;</text>
</g>
<!-- IOP&#45;&gt;&#45;LRB&#45; -->
<g id="edge10" class="edge">
<title>IOP&#45;&gt;&#45;LRB&#45;</title>
<path fill="none" stroke="#000000" d="M258,-260.9735C258,-249.1918 258,-233.5607 258,-220.1581"/>
<polygon fill="#000000" stroke="#000000" points="261.5001,-220.0033 258,-210.0034 254.5001,-220.0034 261.5001,-220.0033"/>
<text text-anchor="middle" x="273.5" y="-231.8" font-family="Times,serif" font-size="14.00" fill="#000000">punct</text>
</g>
<!-- affecting&#45;&gt;pressure -->
<g id="edge11" class="edge">
<title>affecting&#45;&gt;pressure</title>
<path fill="none" stroke="#000000" d="M324,-434.9735C324,-423.1918 324,-407.5607 324,-394.1581"/>
<polygon fill="#000000" stroke="#000000" points="327.5001,-394.0033 324,-384.0034 320.5001,-394.0034 327.5001,-394.0033"/>
<text text-anchor="middle" x="336.5" y="-405.8" font-family="Times,serif" font-size="14.00" fill="#000000">dobj</text>
</g>
<!-- ROOT -->
<g id="node14" class="node">
<title>ROOT</title>
<ellipse fill="none" stroke="#000000" cx="140" cy="-801" rx="34.394" ry="18"/>
<text text-anchor="middle" x="140" y="-797.3" font-family="Times,serif" font-size="14.00" fill="#000000">ROOT</text>
</g>
<!-- known -->
<g id="node18" class="node">
<title>known</title>
<ellipse fill="none" stroke="#000000" cx="140" cy="-714" rx="34.394" ry="18"/>
<text text-anchor="middle" x="140" y="-710.3" font-family="Times,serif" font-size="14.00" fill="#000000">known</text>
</g>
<!-- ROOT&#45;&gt;known -->
<g id="edge12" class="edge">
<title>ROOT&#45;&gt;known</title>
<path fill="none" stroke="#000000" d="M140,-782.9735C140,-771.1918 140,-755.5607 140,-742.1581"/>
<polygon fill="#000000" stroke="#000000" points="143.5001,-742.0033 140,-732.0034 136.5001,-742.0034 143.5001,-742.0033"/>
<text text-anchor="middle" x="151" y="-753.8" font-family="Times,serif" font-size="14.00" fill="#000000">root</text>
</g>
<!-- about -->
<g id="node17" class="node">
<title>about</title>
<ellipse fill="none" stroke="#000000" cx="254" cy="-627" rx="30.5947" ry="18"/>
<text text-anchor="middle" x="254" y="-623.3" font-family="Times,serif" font-size="14.00" fill="#000000">about</text>
</g>
<!-- about&#45;&gt;factors -->
<g id="edge13" class="edge">
<title>about&#45;&gt;factors</title>
<path fill="none" stroke="#000000" d="M254,-608.9735C254,-597.1918 254,-581.5607 254,-568.1581"/>
<polygon fill="#000000" stroke="#000000" points="257.5001,-568.0033 254,-558.0034 250.5001,-568.0034 257.5001,-568.0033"/>
<text text-anchor="middle" x="266.5" y="-579.8" font-family="Times,serif" font-size="14.00" fill="#000000">pobj</text>
</g>
<!-- known&#45;&gt;is -->
<g id="edge15" class="edge">
<title>known&#45;&gt;is</title>
<path fill="none" stroke="#000000" d="M108.4453,-706.7757C90.4587,-701.3385 68.4885,-692.3091 53,-678 45.9989,-671.532 40.5944,-662.7524 36.5728,-654.301"/>
<polygon fill="#000000" stroke="#000000" points="39.7612,-652.8552 32.6085,-645.0392 33.3259,-655.6097 39.7612,-652.8552"/>
<text text-anchor="middle" x="74.5" y="-666.8" font-family="Times,serif" font-size="14.00" fill="#000000">auxpass</text>
</g>
<!-- known&#45;&gt;Little -->
<g id="edge14" class="edge">
<title>known&#45;&gt;Little</title>
<path fill="none" stroke="#000000" d="M119.5004,-699.3473C112.9932,-693.5137 106.5672,-686.222 103,-678 99.9467,-670.9624 98.8452,-662.8481 98.7243,-655.1914"/>
<polygon fill="#000000" stroke="#000000" points="102.2227,-655.2952 99.0759,-645.1785 95.227,-655.0494 102.2227,-655.2952"/>
<text text-anchor="middle" x="129.5" y="-666.8" font-family="Times,serif" font-size="14.00" fill="#000000">nsubjpass</text>
</g>
<!-- known&#45;&gt;. -->
<g id="edge17" class="edge">
<title>known&#45;&gt;.</title>
<path fill="none" stroke="#000000" d="M147.8511,-696.4389C150.4578,-690.5807 153.3663,-684.0145 156,-678 159.4268,-670.1744 163.1165,-661.6573 166.4769,-653.8644"/>
<polygon fill="#000000" stroke="#000000" points="169.7742,-655.0565 170.5125,-644.4875 163.3444,-652.2892 169.7742,-655.0565"/>
<text text-anchor="middle" x="178.5" y="-666.8" font-family="Times,serif" font-size="14.00" fill="#000000">punct</text>
</g>
<!-- known&#45;&gt;about -->
<g id="edge16" class="edge">
<title>known&#45;&gt;about</title>
<path fill="none" stroke="#000000" d="M163.5067,-700.7451C174.3176,-694.3159 187.1262,-686.2167 198,-678 209.4242,-669.3675 221.2616,-658.8515 231.0937,-649.6162"/>
<polygon fill="#000000" stroke="#000000" points="233.6854,-651.9809 238.5028,-642.5446 228.8523,-646.9171 233.6854,-651.9809"/>
<text text-anchor="middle" x="228.5" y="-666.8" font-family="Times,serif" font-size="14.00" fill="#000000">prep</text>
</g>
<!-- in&#45;&gt;mice -->
<g id="edge18" class="edge">
<title>in&#45;&gt;mice</title>
<path fill="none" stroke="#000000" d="M446,-260.9735C446,-249.1918 446,-233.5607 446,-220.1581"/>
<polygon fill="#000000" stroke="#000000" points="449.5001,-220.0033 446,-210.0034 442.5001,-220.0034 449.5001,-220.0033"/>
<text text-anchor="middle" x="458.5" y="-231.8" font-family="Times,serif" font-size="14.00" fill="#000000">pobj</text>
</g>
</g>
</svg>
