<svg class="marks" width="800" height="600" viewBox="0 0 800 600" version="1.1" xmlns="http://www.w3.org/2000/svg" xmlns:xlink="http://www.w3.org/1999/xlink"><g transform="translate(0,0)"><g class="mark-group role-frame root"><g transform="translate(0,0)"><path class="background" d="M0,0h800v600h-800Z" style="fill: none;"></path><g><g class="mark-group role-axis"><g transform="translate(0.5,600.5)"><path class="background" d="M0,0h0v0h0Z" style="pointer-events: none; fill: none;"></path><g><g class="mark-rule role-axis-tick" style="pointer-events: none;"><line transform="translate(100,0)" x2="0" y2="5" style="fill: none; stroke: #888; stroke-width: 1; opacity: 1;"></line><line transform="translate(300,0)" x2="0" y2="5" style="fill: none; stroke: #888; stroke-width: 1; opacity: 1;"></line><line transform="translate(500,0)" x2="0" y2="5" style="fill: none; stroke: #888; stroke-width: 1; opacity: 1;"></line><line transform="translate(700,0)" x2="0" y2="5" style="fill: none; stroke: #888; stroke-width: 1; opacity: 1;"></line></g><g class="mark-text role-axis-label" style="pointer-events: none;"><text text-anchor="middle" transform="translate(99.5,15)" style="font-family: sans-serif; font-size: 10px; fill: #000; opacity: 1;">1</text><text text-anchor="middle" transform="translate(299.5,15)" style="font-family: sans-serif; font-size: 10px; fill: #000; opacity: 1;">2</text><text text-anchor="middle" transform="translate(499.5,15)" style="font-family: sans-serif; font-size: 10px; fill: #000; opacity: 1;">3</text><text text-anchor="middle" transform="translate(699.5,15)" style="font-family: sans-serif; font-size: 10px; fill: #000; opacity: 1;">4</text></g><g class="mark-rule role-axis-domain" style="pointer-events: none;"><line transform="translate(0,0)" x2="800" y2="0" style="fill: none; stroke: #888; stroke-width: 1; opacity: 1;"></line></g></g><path class="foreground" d="" style="pointer-events: none; display: none; fill: none;"></path></g></g><g class="mark-group role-axis"><g transform="translate(0.5,0.5)"><path class="background" d="M0,0h0v0h0Z" style="pointer-events: none; fill: none;"></path><g><g class="mark-rule role-axis-tick" style="pointer-events: none;"><line transform="translate(0,600)" x2="-5" y2="0" style="fill: none; stroke: #888; stroke-width: 1; opacity: 1;"></line><line transform="translate(0,560)" x2="-5" y2="0" style="fill: none; stroke: #888; stroke-width: 1; opacity: 1;"></line><line transform="translate(0,520)" x2="-5" y2="0" style="fill: none; stroke: #888; stroke-width: 1; opacity: 1;"></line><line transform="translate(0,480)" x2="-5" y2="0" style="fill: none; stroke: #888; stroke-width: 1; opacity: 1;"></line><line transform="translate(0,440)" x2="-5" y2="0" style="fill: none; stroke: #888; stroke-width: 1; opacity: 1;"></line><line transform="translate(0,400)" x2="-5" y2="0" style="fill: none; stroke: #888; stroke-width: 1; opacity: 1;"></line><line transform="translate(0,360)" x2="-5" y2="0" style="fill: none; stroke: #888; stroke-width: 1; opacity: 1;"></line><line transform="translate(0,320)" x2="-5" y2="0" style="fill: none; stroke: #888; stroke-width: 1; opacity: 1;"></line><line transform="translate(0,280)" x2="-5" y2="0" style="fill: none; stroke: #888; stroke-width: 1; opacity: 1;"></line><line transform="translate(0,240)" x2="-5" y2="0" style="fill: none; stroke: #888; stroke-width: 1; opacity: 1;"></line><line transform="translate(0,200)" x2="-5" y2="0" style="fill: none; stroke: #888; stroke-width: 1; opacity: 1;"></line><line transform="translate(0,160)" x2="-5" y2="0" style="fill: none; stroke: #888; stroke-width: 1; opacity: 1;"></line><line transform="translate(0,120)" x2="-5" y2="0" style="fill: none; stroke: #888; stroke-width: 1; opacity: 1;"></line><line transform="translate(0,80)" x2="-5" y2="0" style="fill: none; stroke: #888; stroke-width: 1; opacity: 1;"></line><line transform="translate(0,40)" x2="-5" y2="0" style="fill: none; stroke: #888; stroke-width: 1; opacity: 1;"></line><line transform="translate(0,0)" x2="-5" y2="0" style="fill: none; stroke: #888; stroke-width: 1; opacity: 1;"></line></g><g class="mark-text role-axis-label" style="pointer-events: none;"><text text-anchor="end" transform="translate(-7,603)" style="font-family: sans-serif; font-size: 10px; fill: #000; opacity: 1;">-3.0</text><text text-anchor="end" transform="translate(-7,562.9999999999999)" style="font-family: sans-serif; font-size: 10px; fill: #000; opacity: 1;">-2.8</text><text text-anchor="end" transform="translate(-7,523)" style="font-family: sans-serif; font-size: 10px; fill: #000; opacity: 1;">-2.6</text><text text-anchor="end" transform="translate(-7,482.99999999999994)" style="font-family: sans-serif; font-size: 10px; fill: #000; opacity: 1;">-2.4</text><text text-anchor="end" transform="translate(-7,443.00000000000006)" style="font-family: sans-serif; font-size: 10px; fill: #000; opacity: 1;">-2.2</text><text text-anchor="end" transform="translate(-7,403.00000000000006)" style="font-family: sans-serif; font-size: 10px; fill: #000; opacity: 1;">-2.0</text><text text-anchor="end" transform="translate(-7,363.00000000000006)" style="font-family: sans-serif; font-size: 10px; fill: #000; opacity: 1;">-1.8</text><text text-anchor="end" transform="translate(-7,323.00000000000006)" style="font-family: sans-serif; font-size: 10px; fill: #000; opacity: 1;">-1.6</text><text text-anchor="end" transform="translate(-7,283)" style="font-family: sans-serif; font-size: 10px; fill: #000; opacity: 1;">-1.4</text><text text-anchor="end" transform="translate(-7,243)" style="font-family: sans-serif; font-size: 10px; fill: #000; opacity: 1;">-1.2</text><text text-anchor="end" transform="translate(-7,203.00000000000003)" style="font-family: sans-serif; font-size: 10px; fill: #000; opacity: 1;">-1.0</text><text text-anchor="end" transform="translate(-7,162.99999999999997)" style="font-family: sans-serif; font-size: 10px; fill: #000; opacity: 1;">-0.8</text><text text-anchor="end" transform="translate(-7,123.00000000000004)" style="font-family: sans-serif; font-size: 10px; fill: #000; opacity: 1;">-0.6</text><text text-anchor="end" transform="translate(-7,82.99999999999999)" style="font-family: sans-serif; font-size: 10px; fill: #000; opacity: 1;">-0.4</text><text text-anchor="end" transform="translate(-7,43.00000000000006)" style="font-family: sans-serif; font-size: 10px; fill: #000; opacity: 1;">-0.2</text><text text-anchor="end" transform="translate(-7,3)" style="font-family: sans-serif; font-size: 10px; fill: #000; opacity: 1;">0.0</text></g><g class="mark-rule role-axis-domain" style="pointer-events: none;"><line transform="translate(0,600)" x2="0" y2="-600" style="fill: none; stroke: #888; stroke-width: 1; opacity: 1;"></line></g></g><path class="foreground" d="" style="pointer-events: none; display: none; fill: none;"></path></g></g><g class="mark-path role-mark links" style="pointer-events: none;"><path transform="translate(0,0)" d="M319,419L155,272" style="fill: none; stroke: #ccc; stroke-width: 0.8;"></path><path transform="translate(0,0)" d="M319,419L617,197" style="fill: none; stroke: #ccc; stroke-width: 0.8;"></path><path transform="translate(0,0)" d="M319,419L340,90" style="fill: none; stroke: #ccc; stroke-width: 0.8;"></path><path transform="translate(0,0)" d="M155,272L617,197" style="fill: none; stroke: #ccc; stroke-width: 0.8;"></path><path transform="translate(0,0)" d="M155,272L340,90" style="fill: none; stroke: #ccc; stroke-width: 0.8;"></path><path transform="translate(0,0)" d="M617,197L340,90" style="fill: none; stroke: #ccc; stroke-width: 0.8;"></path></g><g class="mark-symbol role-mark nodes"><path transform="translate(319,419)" d="M50,0A50,50,0,1,1,-50,0A50,50,0,1,1,50,0" style="fill: #1b9e77; stroke: black;"></path><path transform="translate(155,272)" d="M50,0A50,50,0,1,1,-50,0A50,50,0,1,1,50,0" style="fill: #d95f02; stroke: black;"></path><path transform="translate(617,197)" d="M50,0A50,50,0,1,1,-50,0A50,50,0,1,1,50,0" style="fill: #7570b3; stroke: black;"></path><path transform="translate(340,90)" d="M50,0A50,50,0,1,1,-50,0A50,50,0,1,1,50,0" style="fill: #e7298a; stroke: black;"></path></g><g class="mark-text role-mark nodes_labels"><text text-anchor="middle" transform="translate(319,419)" style="font-family: sans-serif; font-size: 18px; fill: black; stroke-width: 0.9;">hormone-inhibitor</text><text text-anchor="middle" transform="translate(155,272)" style="font-family: sans-serif; font-size: 18px; fill: black; stroke-width: 0.9;">hormone</text><text text-anchor="middle" transform="translate(617,197)" style="font-family: sans-serif; font-size: 18px; fill: black; stroke-width: 0.9;">cancer-tissue</text><text text-anchor="middle" transform="translate(340,90)" style="font-family: sans-serif; font-size: 18px; fill: black; stroke-width: 0.9;">tissue</text></g><g class="mark-text role-mark links_labels"><text text-anchor="middle" transform="translate(237,345.5) rotate(-318.12880984883213)" style="font-family: sans-serif; font-size: 18px; fill: black;">inhibits</text><text text-anchor="middle" transform="translate(468,308) rotate(-36.684874243208114)" style="font-family: sans-serif; font-size: 18px; fill: black;">inhibits</text><text text-anchor="middle" transform="translate(329.5,254.5) rotate(-86.34777721969367)" style="font-family: sans-serif; font-size: 18px; fill: black;">inhibits</text><text text-anchor="middle" transform="translate(386,234.5) rotate(-9.220824040637911)" style="font-family: sans-serif; font-size: 18px; fill: black;">promotes</text><text text-anchor="middle" transform="translate(247.5,181) rotate(-44.53165256088752)" style="font-family: sans-serif; font-size: 18px; fill: black;">promotes</text><text text-anchor="middle" transform="translate(478.5,143.5) rotate(-338.8793713643449)" style="font-family: sans-serif; font-size: 18px; fill: black;">derived-from</text></g><g class="mark-symbol role-mark links_directions"><path transform="translate(200.55777222913503,312.83532022977346) rotate(-48.128809848832134)" d="M-1.5971914124998499,11.180339887498949L1.5971914124998499,11.180339887498949L1.5971914124998499,-1.3975424859373686L4.47213595499958,-1.3975424859373686L0,-11.180339887498949L-4.47213595499958,-1.3975424859373686L-1.5971914124998499,-1.3975424859373686Z" style="fill: #ccc;"></path><path transform="translate(567.937442882892,233.5499586577113) rotate(53.315125756791886)" d="M-1.5971914124998499,11.180339887498949L1.5971914124998499,11.180339887498949L1.5971914124998499,-1.3975424859373686L4.47213595499958,-1.3975424859373686L0,-11.180339887498949L-4.47213595499958,-1.3975424859373686L-1.5971914124998499,-1.3975424859373686Z" style="fill: #ccc;"></path><path transform="translate(336.1028029136077,151.0560876868123) rotate(3.6522227803063316)" d="M-1.5971914124998499,11.180339887498949L1.5971914124998499,11.180339887498949L1.5971914124998499,-1.3975424859373686L4.47213595499958,-1.3975424859373686L0,-11.180339887498949L-4.47213595499958,-1.3975424859373686L-1.5971914124998499,-1.3975424859373686Z" style="fill: #ccc;"></path><path transform="translate(556.6102268746569,206.80353459827) rotate(80.77917595936209)" d="M-1.5971914124998499,11.180339887498949L1.5971914124998499,11.180339887498949L1.5971914124998499,-1.3975424859373686L4.47213595499958,-1.3975424859373686L0,-11.180339887498949L-4.47213595499958,-1.3975424859373686L-1.5971914124998499,-1.3975424859373686Z" style="fill: #ccc;"></path><path transform="translate(296.3867914722673,132.905967308364) rotate(45.46834743911248)" d="M-1.5971914124998499,11.180339887498949L1.5971914124998499,11.180339887498949L1.5971914124998499,-1.3975424859373686L4.47213595499958,-1.3975424859373686L0,-11.180339887498949L-4.47213595499958,-1.3975424859373686L-1.5971914124998499,-1.3975424859373686Z" style="fill: #ccc;"></path><path transform="translate(397.07048093043335,112.04527602727934) rotate(-68.87937136434488)" d="M-1.5971914124998499,11.180339887498949L1.5971914124998499,11.180339887498949L1.5971914124998499,-1.3975424859373686L4.47213595499958,-1.3975424859373686L0,-11.180339887498949L-4.47213595499958,-1.3975424859373686L-1.5971914124998499,-1.3975424859373686Z" style="fill: #ccc;"></path></g></g><path class="foreground" d="" style="display: none; fill: none;"></path></g></g></g></svg>