<svg class="marks" width="800" height="600" viewBox="0 0 800 600" version="1.1" xmlns="http://www.w3.org/2000/svg" xmlns:xlink="http://www.w3.org/1999/xlink"><g transform="translate(0,0)"><g class="mark-group role-frame root"><g transform="translate(0,0)"><path class="background" d="M0,0h800v600h-800Z" style="fill: none;"></path><g><g class="mark-group role-axis"><g transform="translate(0.5,600.5)"><path class="background" d="M0,0h0v0h0Z" style="pointer-events: none; fill: none;"></path><g><g class="mark-rule role-axis-tick" style="pointer-events: none;"><line transform="translate(100,0)" x2="0" y2="5" style="fill: none; stroke: #888; stroke-width: 1; opacity: 1;"></line><line transform="translate(300,0)" x2="0" y2="5" style="fill: none; stroke: #888; stroke-width: 1; opacity: 1;"></line><line transform="translate(500,0)" x2="0" y2="5" style="fill: none; stroke: #888; stroke-width: 1; opacity: 1;"></line><line transform="translate(700,0)" x2="0" y2="5" style="fill: none; stroke: #888; stroke-width: 1; opacity: 1;"></line></g><g class="mark-text role-axis-label" style="pointer-events: none;"><text text-anchor="middle" transform="translate(99.5,15)" style="font-family: sans-serif; font-size: 10px; fill: #000; opacity: 1;">1</text><text text-anchor="middle" transform="translate(299.5,15)" style="font-family: sans-serif; font-size: 10px; fill: #000; opacity: 1;">2</text><text text-anchor="middle" transform="translate(499.5,15)" style="font-family: sans-serif; font-size: 10px; fill: #000; opacity: 1;">3</text><text text-anchor="middle" transform="translate(699.5,15)" style="font-family: sans-serif; font-size: 10px; fill: #000; opacity: 1;">4</text></g><g class="mark-rule role-axis-domain" style="pointer-events: none;"><line transform="translate(0,0)" x2="800" y2="0" style="fill: none; stroke: #888; stroke-width: 1; opacity: 1;"></line></g></g><path class="foreground" d="" style="pointer-events: none; display: none; fill: none;"></path></g></g><g class="mark-group role-axis"><g transform="translate(0.5,0.5)"><path class="background" d="M0,0h0v0h0Z" style="pointer-events: none; fill: none;"></path><g><g class="mark-rule role-axis-tick" style="pointer-events: none;"><line transform="translate(0,600)" x2="-5" y2="0" style="fill: none; stroke: #888; stroke-width: 1; opacity: 1;"></line><line transform="translate(0,560)" x2="-5" y2="0" style="fill: none; stroke: #888; stroke-width: 1; opacity: 1;"></line><line transform="translate(0,520)" x2="-5" y2="0" style="fill: none; stroke: #888; stroke-width: 1; opacity: 1;"></line><line transform="translate(0,480)" x2="-5" y2="0" style="fill: none; stroke: #888; stroke-width: 1; opacity: 1;"></line><line transform="translate(0,440)" x2="-5" y2="0" style="fill: none; stroke: #888; stroke-width: 1; opacity: 1;"></line><line transform="translate(0,400)" x2="-5" y2="0" style="fill: none; stroke: #888; stroke-width: 1; opacity: 1;"></line><line transform="translate(0,360)" x2="-5" y2="0" style="fill: none; stroke: #888; stroke-width: 1; opacity: 1;"></line><line transform="translate(0,320)" x2="-5" y2="0" style="fill: none; stroke: #888; stroke-width: 1; opacity: 1;"></line><line transform="translate(0,280)" x2="-5" y2="0" style="fill: none; stroke: #888; stroke-width: 1; opacity: 1;"></line><line transform="translate(0,240)" x2="-5" y2="0" style="fill: none; stroke: #888; stroke-width: 1; opacity: 1;"></line><line transform="translate(0,200)" x2="-5" y2="0" style="fill: none; stroke: #888; stroke-width: 1; opacity: 1;"></line><line transform="translate(0,160)" x2="-5" y2="0" style="fill: none; stroke: #888; stroke-width: 1; opacity: 1;"></line><line transform="translate(0,120)" x2="-5" y2="0" style="fill: none; stroke: #888; stroke-width: 1; opacity: 1;"></line><line transform="translate(0,80)" x2="-5" y2="0" style="fill: none; stroke: #888; stroke-width: 1; opacity: 1;"></line><line transform="translate(0,40)" x2="-5" y2="0" style="fill: none; stroke: #888; stroke-width: 1; opacity: 1;"></line><line transform="translate(0,0)" x2="-5" y2="0" style="fill: none; stroke: #888; stroke-width: 1; opacity: 1;"></line></g><g class="mark-text role-axis-label" style="pointer-events: none;"><text text-anchor="end" transform="translate(-7,603)" style="font-family: sans-serif; font-size: 10px; fill: #000; opacity: 1;">-3.0</text><text text-anchor="end" transform="translate(-7,562.9999999999999)" style="font-family: sans-serif; font-size: 10px; fill: #000; opacity: 1;">-2.8</text><text text-anchor="end" transform="translate(-7,523)" style="font-family: sans-serif; font-size: 10px; fill: #000; opacity: 1;">-2.6</text><text text-anchor="end" transform="translate(-7,482.99999999999994)" style="font-family: sans-serif; font-size: 10px; fill: #000; opacity: 1;">-2.4</text><text text-anchor="end" transform="translate(-7,443.00000000000006)" style="font-family: sans-serif; font-size: 10px; fill: #000; opacity: 1;">-2.2</text><text text-anchor="end" transform="translate(-7,403.00000000000006)" style="font-family: sans-serif; font-size: 10px; fill: #000; opacity: 1;">-2.0</text><text text-anchor="end" transform="translate(-7,363.00000000000006)" style="font-family: sans-serif; font-size: 10px; fill: #000; opacity: 1;">-1.8</text><text text-anchor="end" transform="translate(-7,323.00000000000006)" style="font-family: sans-serif; font-size: 10px; fill: #000; opacity: 1;">-1.6</text><text text-anchor="end" transform="translate(-7,283)" style="font-family: sans-serif; font-size: 10px; fill: #000; opacity: 1;">-1.4</text><text text-anchor="end" transform="translate(-7,243)" style="font-family: sans-serif; font-size: 10px; fill: #000; opacity: 1;">-1.2</text><text text-anchor="end" transform="translate(-7,203.00000000000003)" style="font-family: sans-serif; font-size: 10px; fill: #000; opacity: 1;">-1.0</text><text text-anchor="end" transform="translate(-7,162.99999999999997)" style="font-family: sans-serif; font-size: 10px; fill: #000; opacity: 1;">-0.8</text><text text-anchor="end" transform="translate(-7,123.00000000000004)" style="font-family: sans-serif; font-size: 10px; fill: #000; opacity: 1;">-0.6</text><text text-anchor="end" transform="translate(-7,82.99999999999999)" style="font-family: sans-serif; font-size: 10px; fill: #000; opacity: 1;">-0.4</text><text text-anchor="end" transform="translate(-7,43.00000000000006)" style="font-family: sans-serif; font-size: 10px; fill: #000; opacity: 1;">-0.2</text><text text-anchor="end" transform="translate(-7,3)" style="font-family: sans-serif; font-size: 10px; fill: #000; opacity: 1;">0.0</text></g><g class="mark-rule role-axis-domain" style="pointer-events: none;"><line transform="translate(0,600)" x2="0" y2="-600" style="fill: none; stroke: #888; stroke-width: 1; opacity: 1;"></line></g></g><path class="foreground" d="" style="pointer-events: none; display: none; fill: none;"></path></g></g><g class="mark-path role-mark links" style="pointer-events: none;"><path transform="translate(0,0)" d="M314,427L149,260" style="fill: none; stroke: #ccc; stroke-width: 0.8;"></path><path transform="translate(0,0)" d="M314,427L608,195" style="fill: none; stroke: #ccc; stroke-width: 0.8;"></path><path transform="translate(0,0)" d="M314,427L333,100" style="fill: none; stroke: #ccc; stroke-width: 0.8;"></path><path transform="translate(0,0)" d="M149,260L608,195" style="fill: none; stroke: #ccc; stroke-width: 0.8;"></path><path transform="translate(0,0)" d="M149,260L333,100" style="fill: none; stroke: #ccc; stroke-width: 0.8;"></path><path transform="translate(0,0)" d="M608,195L333,100" style="fill: none; stroke: #ccc; stroke-width: 0.8;"></path></g><g class="mark-symbol role-mark nodes"><path transform="translate(314,427)" d="M50,0A50,50,0,1,1,-50,0A50,50,0,1,1,50,0" style="fill: #1b9e77; stroke: black;"></path><path transform="translate(149,260)" d="M50,0A50,50,0,1,1,-50,0A50,50,0,1,1,50,0" style="fill: #d95f02; stroke: black;"></path><path transform="translate(608,195)" d="M50,0A50,50,0,1,1,-50,0A50,50,0,1,1,50,0" style="fill: #7570b3; stroke: black;"></path><path transform="translate(333,100)" d="M50,0A50,50,0,1,1,-50,0A50,50,0,1,1,50,0" style="fill: #e7298a; stroke: black;"></path></g><g class="mark-text role-mark nodes_labels"><text text-anchor="middle" transform="translate(314,427)" style="font-family: sans-serif; font-size: 18px; fill: black; stroke-width: 0.9;">lhrh-agonist</text><text text-anchor="middle" transform="translate(149,260)" style="font-family: sans-serif; font-size: 18px; fill: black; stroke-width: 0.9;">testosterone</text><text text-anchor="middle" transform="translate(608,195)" style="font-family: sans-serif; font-size: 18px; fill: black; stroke-width: 0.9;">prostate-cancer-tissue</text><text text-anchor="middle" transform="translate(333,100)" style="font-family: sans-serif; font-size: 18px; fill: black; stroke-width: 0.9;">prostate-tissue</text></g><g class="mark-text role-mark links_labels"><text text-anchor="middle" transform="translate(231.5,343.5) rotate(-314.6548488768359)" style="font-family: sans-serif; font-size: 18px; fill: black;">inhibits</text><text text-anchor="middle" transform="translate(461,311) rotate(-38.27752348816549)" style="font-family: sans-serif; font-size: 18px; fill: black;">inhibits</text><text text-anchor="middle" transform="translate(323.5,263.5) rotate(-86.67462629941846)" style="font-family: sans-serif; font-size: 18px; fill: black;">inhibits</text><text text-anchor="middle" transform="translate(378.5,227.5) rotate(-8.06018685559)" style="font-family: sans-serif; font-size: 18px; fill: black;">promotes</text><text text-anchor="middle" transform="translate(241,180) rotate(-41.00908690157022)" style="font-family: sans-serif; font-size: 18px; fill: black;">promotes</text><text text-anchor="middle" transform="translate(470.5,147.5) rotate(-340.9422954898717)" style="font-family: sans-serif; font-size: 18px; fill: black;">derived-from</text></g><g class="mark-symbol role-mark links_directions"><path transform="translate(191.99964436013494,303.52085217056083) rotate(-44.65484887683587)" d="M-1.5971914124998499,11.180339887498949L1.5971914124998499,11.180339887498949L1.5971914124998499,-1.3975424859373686L4.47213595499958,-1.3975424859373686L0,-11.180339887498949L-4.47213595499958,-1.3975424859373686L-1.5971914124998499,-1.3975424859373686Z" style="fill: #ccc;"></path><path transform="translate(559.9722436759274,232.89945397001645) rotate(51.72247651183451)" d="M-1.5971914124998499,11.180339887498949L1.5971914124998499,11.180339887498949L1.5971914124998499,-1.3975424859373686L4.47213595499958,-1.3975424859373686L0,-11.180339887498949L-4.47213595499958,-1.3975424859373686L-1.5971914124998499,-1.3975424859373686Z" style="fill: #ccc;"></path><path transform="translate(329.45116454228116,161.07732603547686) rotate(3.3253737005815367)" d="M-1.5971914124998499,11.180339887498949L1.5971914124998499,11.180339887498949L1.5971914124998499,-1.3975424859373686L4.47213595499958,-1.3975424859373686L0,-11.180339887498949L-4.47213595499958,-1.3975424859373686L-1.5971914124998499,-1.3975424859373686Z" style="fill: #ccc;"></path><path transform="translate(547.4240406966402,203.578294890454) rotate(81.93981314441)" d="M-1.5971914124998499,11.180339887498949L1.5971914124998499,11.180339887498949L1.5971914124998499,-1.3975424859373686L4.47213595499958,-1.3975424859373686L0,-11.180339887498949L-4.47213595499958,-1.3975424859373686L-1.5971914124998499,-1.3975424859373686Z" style="fill: #ccc;"></path><path transform="translate(286.83297767305316,140.1452368060407) rotate(48.99091309842978)" d="M-1.5971914124998499,11.180339887498949L1.5971914124998499,11.180339887498949L1.5971914124998499,-1.3975424859373686L4.47213595499958,-1.3975424859373686L0,-11.180339887498949L-4.47213595499958,-1.3975424859373686L-1.5971914124998499,-1.3975424859373686Z" style="fill: #ccc;"></path><path transform="translate(390.82705802886915,119.97662004633663) rotate(-70.9422954898717)" d="M-1.5971914124998499,11.180339887498949L1.5971914124998499,11.180339887498949L1.5971914124998499,-1.3975424859373686L4.47213595499958,-1.3975424859373686L0,-11.180339887498949L-4.47213595499958,-1.3975424859373686L-1.5971914124998499,-1.3975424859373686Z" style="fill: #ccc;"></path></g></g><path class="foreground" d="" style="display: none; fill: none;"></path></g></g></g></svg>